<svg t="1735559930478" class="icon" viewBox="0 0 1024 1024" version="1.1" xmlns="http://www.w3.org/2000/svg"
  p-id="14865" width="200" height="200">
  <path
    d="M959 667.8V512c0-24.7-20-44.7-44.7-44.7-24.7 0-44.7 20-44.7 44.7v67l-76.2-57.1c-35.2-26.5-85.6-23-116.9 8.3l-96.3 96.3-143.1-122.7c-34.5-29.3-85.3-28.4-118.6 2L154.4 656.3V176.7c0-12.3 10-22.4 22.4-22.4H512c24.7 0 44.7-20 44.7-44.7 0-24.7-20-44.7-44.7-44.7H176.7C115 65 65 115 65 176.7v670.6C65 909 115 959 176.7 959h670.6C909 959 959 909 959 847.3V669.2v-1.4zM847.3 869.6H176.7c-12.3 0-22.4-10-22.4-22.4v-69.7l224.5-205.9L661.6 814c8.4 7.3 18.8 10.8 29.1 10.8 12.6 0 25.1-5.2 33.9-15.6 16.1-18.8 13.9-47-4.8-63l-71.7-61.5 91.5-91.4 129.9 97.4v156.4c0.1 12.5-9.9 22.5-22.2 22.5z"
    p-id="14866" fill="#2c2c2c"></path>
  <path
    d="M646.1 288.4h89.5v89.4c0 24.7 20 44.7 44.7 44.7s44.7-20 44.7-44.7v-89.4h89.4c24.7 0 44.7-20 44.7-44.7s-20-44.7-44.7-44.7H825v-89.4c0-24.7-20-44.7-44.7-44.7s-44.7 20-44.7 44.7V199h-89.5c-24.7 0-44.7 20-44.7 44.7s20 44.7 44.7 44.7z"
    p-id="14867" fill="#2c2c2c"></path>
</svg>