<svg t="1735560005137" class="icon" viewBox="0 0 1024 1024" version="1.1" xmlns="http://www.w3.org/2000/svg"
  p-id="17691" width="200" height="200">
  <path
    d="M878 407.9c-15.5 0-28 12.5-28 28v315c0 15.5 12.5 28 28 28s28-12.5 28-28v-315c0-15.4-12.5-28-28-28zM787.8 716.3l-134.1-292c-10.3-22.4-42.4-21.6-51.5 1.3L486 717.6c-5.7 14.4 1.3 30.7 15.7 36.4 14.4 5.7 30.7-1.3 36.4-15.7l28.5-71.7c0.5 0 1 0.3 1.5 0.3h135.5l33.4 72.7c4.2 9.1 12.9 15.3 22.8 16.2 10 0.9 19.7-3.5 25.4-11.7 5.8-8.1 6.8-18.7 2.6-27.8z m-199-105.4L630.1 507l47.7 103.9h-89z"
    fill="#2c2c2c" p-id="17692"></path>
  <path
    d="M683.9 883.6H410.4c-0.1 0-0.1-0.1-0.1-0.1v-21.3c0-61.9-50.2-112.1-112.1-112.1h-17.9c-0.1 0-0.1-0.1-0.1-0.1v-97.5c0-57.4-28.1-96.8-79.7-114.7-0.1 0-0.1-0.1-0.1-0.2l34.8-78c2.7-6 3.2-12.7 1.4-19.1-5.2-18.2-7.8-37-7.8-55.9 0-125.7 115.4-229 259.3-229 101.9 0 184.2 41.7 223.4 110.7 4 7 11.5 11.3 19.6 11.3 23.2 0 37.6-25.4 25.5-45.2-50.4-82.5-149.4-132.7-268.4-132.7-173.5 0-315.2 126.9-315.2 285 0 20.7 2.5 41.2 7.3 61.1v0.1l-44.6 99.9c-3.6 8-3.2 17.3 1.1 25 4.2 7.7 11.9 12.9 20.6 14.2 47.5 6.8 67.1 27.3 67.1 67.6v97.6c0 14.8 5.9 29.1 16.4 39.6 10.5 10.5 24.7 16.4 39.6 16.4h18c31 0 56.1 25.1 56.1 56.1v49.3c0 15.5 12.6 28.1 28.1 28.1H685c14.8 0 26.9-11.4 27.9-25.9 1-16.6-12.4-30.2-29-30.2z"
    fill="#2c2c2c" p-id="17693"></path>
</svg>