<svg t="1735560418457" class="icon" viewBox="0 0 1026 1024" version="1.1" xmlns="http://www.w3.org/2000/svg"
  p-id="21701" width="200" height="200">
  <path
    d="M822.494637 606.403067c-12.044314 0-21.843494 9.795087-21.843494 21.843494l0 205.927069c0 42.671868-32.269961 77.382415-71.934333 77.382415L173.591617 911.556045c-39.664372 0-71.934333-34.710546-71.934333-77.382415L101.657284 189.549054c0-42.671868 32.269961-77.382415 71.934333-77.382415l555.125193 0c39.664372 0 71.934333 34.710546 71.934333 77.382415l0 33.866319c0 12.048407 9.800203 21.843494 21.843494 21.843494 12.043291 0 21.843494-9.795087 21.843494-21.843494l0-33.866319c0-66.759473-51.865251-121.069403-115.621321-121.069403L173.591617 68.479651c-63.756069 0-115.621321 54.30993-115.621321 121.069403l0 644.623553c0 66.759473 51.865251 121.069403 115.621321 121.069403l555.125193 0c63.756069 0 115.621321-54.30993 115.621321-121.069403L844.338131 628.246561C844.338131 616.198154 834.538951 606.403067 822.494637 606.403067z"
    fill="#2c2c2c" p-id="21702"></path>
  <path
    d="M999.184825 344.144014l-95.978958-95.974865c-6.736425-6.740518-16.267499-10.606569-26.15673-10.606569-9.885138 0-19.416212 3.865028-26.139334 10.606569l-378.11164 378.106524c-0.524956 0.520863-0.968048 1.049912-0.985444 1.160429-3.434216 2.832512-5.882987 6.587022-7.082302 10.853186L418.913928 801.493324l-0.550539 2.226714 0.033769 0.870834c-0.127913 1.066285-0.153496 2.039449-0.153496 2.934842 0.004093 0.896416 0.042979 1.919722 0.217964 3.166109l0.499373 2.764973c0.438998 1.544169 1.079588 2.798742 1.215688 2.969635 0.358157 0.827855 0.741897 1.612731 1.276063 2.482541 0.955768 1.535983 2.197038 3.054569 3.170203 3.89982l1.988284 1.860371c1.502213 1.168616 3.109828 2.098801 5.013177 2.892887l2.487657 0.895393c1.301645 0.358157 2.645247 0.597611 4.069689 0.716314l1.762133 0.076748 1.52268-0.068562c1.553379-0.102331 3.093455-0.367367 4.586458-0.802272l165.912727-48.371684 2.350534-0.955768c0.989537-0.452301 1.791809-0.938372 2.431376-1.331321 0.567935-0.324388 1.412163-0.818645 1.992377-1.270946l0.721431-0.401136 379.732557-379.608737C1013.596046 382.019647 1013.596046 358.563422 999.184825 344.144014zM925.970336 332.709591 568.038294 690.645726l-48.917106-48.91813 357.936135-357.926926L925.970336 332.709591zM564.084239 748.462526l-45.61592 13.301957-33.589003-33.584909 12.914124-46.007847L564.084239 748.462526zM963.55228 370.296651 605.620237 728.223576l-6.689353-6.689353 357.926926-357.936135L963.55228 370.296651z"
    fill="#2c2c2c" p-id="21703"></path>
  <path
    d="M671.773913 213.219149 232.718249 213.219149c-12.044314 0-21.843494 9.795087-21.843494 21.843494 0 12.048407 9.800203 21.843494 21.843494 21.843494l439.055664 0c12.044314 0 21.843494-9.795087 21.843494-21.843494C693.617407 223.014236 683.818227 213.219149 671.773913 213.219149z"
    fill="#2c2c2c" p-id="21704"></path>
  <path
    d="M693.617407 330.449108c0-12.048407-9.800203-21.843494-21.843494-21.843494L232.718249 308.605613c-12.044314 0-21.843494 9.795087-21.843494 21.843494s9.800203 21.843494 21.843494 21.843494l439.055664 0C683.818227 352.292602 693.617407 342.496491 693.617407 330.449108z"
    fill="#2c2c2c" p-id="21705"></path>
  <path
    d="M477.025441 403.982868 232.718249 403.982868c-12.044314 0-21.843494 9.795087-21.843494 21.843494 0 12.048407 9.800203 21.843494 21.843494 21.843494l244.306168 0c12.044314 0 21.843494-9.795087 21.843494-21.843494C498.868935 413.778978 489.068731 403.982868 477.025441 403.982868z"
    fill="#2c2c2c" p-id="21706"></path>
  <path
    d="M497.008564 521.212826c0-12.048407-9.800203-21.843494-21.843494-21.843494L232.718249 499.369332c-12.044314 0-21.843494 9.795087-21.843494 21.843494s9.800203 21.843494 21.843494 21.843494L475.16507 543.05632C487.209384 543.05632 497.008564 533.261233 497.008564 521.212826z"
    fill="#2c2c2c" p-id="21707"></path>
  <path
    d="M366.237195 594.755796 232.718249 594.755796c-12.044314 0-21.843494 9.795087-21.843494 21.843494s9.800203 21.843494 21.843494 21.843494l133.518946 0c12.044314 0 21.843494-9.795087 21.843494-21.843494S378.281509 594.755796 366.237195 594.755796z"
    fill="#2c2c2c" p-id="21708"></path>
  <path
    d="M232.718249 733.821061l125.736703 0c12.044314 0 21.843494-9.795087 21.843494-21.843494 0-12.048407-9.800203-21.843494-21.843494-21.843494L232.718249 690.134073c-12.044314 0-21.843494 9.795087-21.843494 21.843494C210.874755 724.024951 220.674958 733.821061 232.718249 733.821061z"
    fill="#2c2c2c" p-id="21709"></path>
  <path
    d="M232.718249 829.207525l128.58661 0c12.044314 0 21.843494-9.795087 21.843494-21.843494s-9.800203-21.843494-21.843494-21.843494L232.718249 785.520537c-12.044314 0-21.843494 9.795087-21.843494 21.843494S220.674958 829.207525 232.718249 829.207525z"
    fill="#2c2c2c" p-id="21710"></path>
</svg>